# xmcd
#
# Track frame offsets:
#	150
#	12033
#	23868
#	34282
#	53647
#	65050
#	77540
#	88079
#	98409
#	111330
#	123409
#	134046
#	147051
#	157959
#	172106
#	183509
#	197719
#	208767
#	220901
#	232394
#	245524
#	256042
#	266518
#
# Disc length: 3712 seconds
#
# Revision: 1
# Processed by: cddbd v1.5.2PL0 Copyright (c) Steve Scherf et al.
# Submitted via: audiograbber 1.83.01
#
DISCID=4c0e7e17
DTITLE=Roy Acuff - The End Of The World
DYEAR=2010
DGENRE=Country and Western
TTITLE0=Satisfied Mind
TTITLE1=Your Cheatin' Heart
TTITLE2=I Can't Help It (If I'm Still In Love With You)
TTITLE3=I Wonder Where You Are Tonight
TTITLE4=Life To Go
TTITLE5=Cold Cold Heart
TTITLE6=No Letter In The Mail
TTITLE7=Don't Let Your Sweet Love Die
TTITLE8=Put My Little Shoes Away
TTITLE9=Little Rosewood Casket
TTITLE10=All The World Is Lonely Now
TTITLE11=Heartbreak Avenue
TTITLE12=Take These Chains From My Heart
TTITLE13=The Letter Edged In Black
TTITLE14=Candy Kisses
TTITLE15=End Of The World
TTITLE16=There'll Be No Teardrops Tonight
TTITLE17=I'm So Lonesome I Could Cry
TTITLE18=Send Me The Pillow You Dream On
TTITLE19=Goodbye My Love, I Heard A Silver Trumpet
TTITLE20=I'll Go On Alone
TTITLE21=Conscience Set Me Free
TTITLE22=Come And Knock On The Door Of My Heart
EXTD=
EXTT0=
EXTT1=
EXTT2=
EXTT3=
EXTT4=
EXTT5=
EXTT6=
EXTT7=
EXTT8=
EXTT9=
EXTT10=
EXTT11=
EXTT12=
EXTT13=
EXTT14=
EXTT15=
EXTT16=
EXTT17=
EXTT18=
EXTT19=
EXTT20=
EXTT21=
EXTT22=
PLAYORDER=
